PathFileType	4	(X/Y/Z)	/Users/itak/Documents/Research/Walk-IL/dataset/trc/00337_00011.trc
DataRate	CameraRate	NumFrames	NumMarkers	Units	OrigDataRate	OrigDataStartFrame	OrigNumFrames
100.000000	100.000000	4	53	mm	100.000000	0	818
Frame#	Time	RPSI			LPSI			L3			STRN			T10			C7			CLAV			RBAK			LBAK			LSHO			LUPA			LAEL			LAOL			LWTS			LWPS			LFRA			LIFD			LHPS			LHTS			RSHO			RUPA			RAEL			RAOL			RWTS			RWPS			RFRA			RIFD			RHTS			RHPS			RBHD			LFHD			RFHD			LBHD			LHIP			RHIP			RASI			LASI			LKNE			LTHI			LANK			LTIP			LTOE			LMT1			LMT5			LHEE			RKNE			RTHI			RANK			RTIP			RTOE			RMT1			RMT5			RHEE			
		X1	Y1	Z1	X2	Y2	Z2	X3	Y3	Z3	X4	Y4	Z4	X5	Y5	Z5	X6	Y6	Z6	X7	Y7	Z7	X8	Y8	Z8	X9	Y9	Z9	X10	Y10	Z10	X11	Y11	Z11	X12	Y12	Z12	X13	Y13	Z13	X14	Y14	Z14	X15	Y15	Z15	X16	Y16	Z16	X17	Y17	Z17	X18	Y18	Z18	X19	Y19	Z19	X20	Y20	Z20	X21	Y21	Z21	X22	Y22	Z22	X23	Y23	Z23	X24	Y24	Z24	X25	Y25	Z25	X26	Y26	Z26	X27	Y27	Z27	X28	Y28	Z28	X29	Y29	Z29	X30	Y30	Z30	X31	Y31	Z31	X32	Y32	Z32	X33	Y33	Z33	X34	Y34	Z34	X35	Y35	Z35	X36	Y36	Z36	X37	Y37	Z37	X38	Y38	Z38	X39	Y39	Z39	X40	Y40	Z40	X41	Y41	Z41	X42	Y42	Z42	X43	Y43	Z43	X44	Y44	Z44	X45	Y45	Z45	X46	Y46	Z46	X47	Y47	Z47	X48	Y48	Z48	X49	Y49	Z49	X50	Y50	Z50	X51	Y51	Z51	X52	Y52	Z52	X53	Y53	Z53	

1	0	-46.59237289428711	984.6989135742188	1185.052612304688	-43.63491058349609	983.0768432617188	1055.256469726562	-45.99252700805664	1034.322631835938	1124.8603515625	170.0344848632812	1222.209838867188	1111.277709960938	-66.00387573242188	1153.801513671875	1112.305297851562	-31.57843208312988	1402.619262695312	1092.054809570312	125.8591842651367	1346.669921875	1103.966674804688	-78.63325500488281	1264.673583984375	1163.144287109375	-36.22511672973633	1362.724731445312	990.4088134765625	51.84842300415039	1380.127075195312	937.0286865234375	42.69843292236328	1258.00146484375	870.818603515625	71.82689666748047	1053.906005859375	867.5914306640625	2.403146982192993	1040.335083007812	916.8196411132812	163.8601837158203	812.956298828125	934.90478515625	135.7705078125	800.8342895507812	873.151123046875	91.29758453369141	949.95068359375	866.7153930664062	166.0862884521484	652.464599609375	944.2907104492188	131.1632537841797	730.2368774414062	880.7267456054688	179.0645599365234	733.600830078125	922.56591796875	23.04827880859375	1393.675537109375	1257.418090820312	13.97111511230469	1329.188354492188	1322.9267578125	32.31945037841797	1060.532958984375	1357.195068359375	-15.35960006713867	1052.691528320312	1276.089599609375	138.3826751708984	832.1484985351562	1299.826904296875	111.3715362548828	817.9174194335938	1370.01123046875	59.77979278564453	994.0427856445312	1363.51220703125	147.8268127441406	659.119873046875	1304.102172851562	168.1331176757812	730.5474853515625	1310.561157226562	124.0657348632812	732.0206298828125	1364.386474609375	-4.59577465057373	1603.469116210938	1169.2841796875	175.5607299804688	1627.469116210938	1066.779541015625	156.9063873291016	1628.349609375	1165.994140625	-3.735036373138428	1595.38720703125	1025.064331054688	42.64004135131836	918.9180908203125	955.7196655273438	29.15700912475586	928.0520629882812	1295.064086914062	135.204345703125	951.4468994140625	1253.354125976562	163.9540863037109	943.6416015625	1015.423095703125	60.48207092285156	460.2137145996094	979.3690185546875	70.43191528320312	599.8560180664062	967.16015625	-28.95138931274414	50.70682144165039	997.52587890625	15.5757007598877	246.5418395996094	975.556396484375	173.6169281005859	42.11493301391602	1066.59130859375	101.7780380249023	28.84703254699707	1103.580688476562	97.43377685546875	45.62007904052734	991.5626220703125	-67.72679901123047	44.44936752319336	1062.5947265625	38.97422409057617	460.6567993164062	1270.777587890625	91.38500213623047	716.9883422851562	1296.655395507812	-18.75594329833984	50.9179573059082	1240.803833007812	43.66275405883789	343.8280639648438	1259.842407226562	172.9657135009766	44.54903411865234	1183.3857421875	116.4010925292969	39.67903518676758	1142.979125976562	82.29412841796875	36.70989608764648	1257.136352539062	-70.3778076171875	53.35819625854492	1195.542114257812	
2	0.01	-46.58149337768555	984.6944580078125	1185.036010742188	-43.63391876220703	983.0625610351562	1055.2412109375	-45.98533248901367	1034.320190429688	1124.848510742188	170.0244140625	1222.233032226562	1111.263671875	-66.01953887939453	1153.76611328125	1112.290161132812	-31.67230796813965	1402.593994140625	1092.082641601562	125.8212890625	1346.674926757812	1103.968139648438	-78.66458129882812	1264.651123046875	1163.143798828125	-36.27419281005859	1362.710693359375	990.424072265625	51.76776123046875	1380.126831054688	937.0355834960938	42.65581130981445	1258.00048828125	870.8289184570312	71.82880401611328	1053.915405273438	867.6102905273438	2.407686471939087	1040.329711914062	916.841796875	163.9556732177734	813.013671875	934.9727172851562	135.8405303955078	800.8681640625	873.1985473632812	91.32341766357422	949.9578857421875	866.74462890625	166.2082977294922	652.4927368164062	944.3165283203125	131.26025390625	730.248779296875	880.8016357421875	179.1307373046875	733.6466064453125	922.6482543945312	23.00529098510742	1393.652587890625	1257.4189453125	13.94008255004883	1329.158935546875	1322.937377929688	32.31993103027344	1060.512573242188	1357.185791015625	-15.37024879455566	1052.675170898438	1276.086181640625	138.4016418457031	832.1489868164062	1299.812377929688	111.3888473510742	817.9093627929688	1369.997924804688	59.78280639648438	994.01611328125	1363.494262695312	147.8453063964844	659.134521484375	1304.077514648438	168.1482696533203	730.5379028320312	1310.532958984375	124.0984191894531	732.0113525390625	1364.333374023438	-4.675053119659424	1603.454223632812	1169.293212890625	175.467041015625	1627.471435546875	1066.803100585938	156.7831878662109	1628.371215820312	1166.041259765625	-3.794204711914062	1595.385498046875	1025.057861328125	42.63462066650391	918.9139404296875	955.6971435546875	29.16953086853027	928.0425415039062	1295.033813476562	135.2010650634766	951.4467163085938	1253.33642578125	163.962158203125	943.6612548828125	1015.401000976562	60.49396514892578	460.21923828125	979.341796875	70.43695831298828	599.8585205078125	967.1422729492188	-28.94878959655762	50.70138931274414	997.525390625	15.57242107391357	246.5359344482422	975.5493774414062	173.6173400878906	42.11614608764648	1066.592041015625	101.7764053344727	28.84706687927246	1103.576416015625	97.43389892578125	45.62703323364258	991.5601196289062	-67.72850799560547	44.44499969482422	1062.591918945312	38.9958610534668	460.6579895019531	1270.770751953125	91.49385833740234	716.9312744140625	1296.58056640625	-18.75442314147949	50.91908264160156	1240.804931640625	43.68113327026367	343.8202819824219	1259.830688476562	172.9674682617188	44.55123901367188	1183.38232421875	116.3991851806641	39.67766952514648	1142.979736328125	82.29401397705078	36.70873260498047	1257.135009765625	-70.38968658447266	53.34030914306641	1195.5322265625	
3	0.02	-46.568603515625	984.6885986328125	1185.013916015625	-43.63461303710938	983.0443725585938	1055.221923828125	-45.97708511352539	1034.316528320312	1124.8330078125	170.0101623535156	1222.262329101562	1111.245483398438	-66.04059600830078	1153.71923828125	1112.26953125	-31.79267501831055	1402.561401367188	1092.122192382812	125.7705078125	1346.681274414062	1103.968994140625	-78.70543670654297	1264.621337890625	1163.143920898438	-36.34042739868164	1362.6923828125	990.4450073242188	51.66021728515625	1380.126586914062	937.044677734375	42.59835433959961	1258.000854492188	870.8419799804688	71.8299560546875	1053.927856445312	867.6367797851562	2.411580801010132	1040.32421875	916.8714599609375	164.0783386230469	813.0890502929688	935.0643310546875	135.9350891113281	800.9130859375	873.2650146484375	91.35584259033203	949.9677734375	866.7852783203125	166.3727416992188	652.5366821289062	944.3601684570312	131.3887786865234	730.26708984375	880.90087890625	179.2218322753906	733.708740234375	922.76513671875	22.95001411437988	1393.620971679688	1257.42333984375	13.89973258972168	1329.119750976562	1322.953125	32.32012939453125	1060.484252929688	1357.17333984375	-15.38565158843994	1052.652587890625	1276.080688476562	138.4260864257812	832.1484375	1299.792724609375	111.4128952026367	817.8983154296875	1369.979736328125	59.78667831420898	993.9804077148438	1363.47216796875	147.8692779541016	659.1514892578125	1304.04443359375	168.1678924560547	730.5234985351562	1310.489990234375	124.1374359130859	731.9996948242188	1364.267822265625	-4.778943538665771	1603.43408203125	1169.308959960938	175.3437347412109	1627.478149414062	1066.828979492188	156.6208343505859	1628.401123046875	1166.097534179688	-3.875006675720215	1595.382934570312	1025.049438476562	42.62563323974609	918.9088745117188	955.6666870117188	29.18586730957031	928.031005859375	1294.994262695312	135.1971588134766	951.4469604492188	1253.312133789062	163.9698028564453	943.6834106445312	1015.372985839844	60.50794982910156	460.2261047363281	979.30712890625	70.44183349609375	599.861572265625	967.118896484375	-28.94610023498535	50.69469833374023	997.5252075195312	15.56698703765869	246.52880859375	975.53955078125	173.6177673339844	42.11799240112305	1066.5927734375	101.774169921875	28.84712791442871	1103.570678710938	97.43407440185547	45.63529968261719	991.5579223632812	-67.73054504394531	44.43912124633789	1062.588012695312	39.02384185791016	460.6599731445312	1270.760986328125	91.61540222167969	716.8687133789062	1296.495361328125	-18.7527027130127	50.92020416259766	1240.80615234375	43.70408248901367	343.8111267089844	1259.815795898438	172.9696350097656	44.55299758911133	1183.378173828125	116.3968124389648	39.67554473876953	1142.980346679688	82.29397583007812	36.70745849609375	1257.133422851562	-70.40467834472656	53.31771469116211	1195.51953125	
4	0.03	-46.5549201965332	984.681640625	1184.987182617188	-43.63764190673828	983.023193359375	1055.199096679688	-45.96854400634766	1034.3115234375	1124.814331054688	169.9917297363281	1222.296752929688	1111.223876953125	-66.06668090820312	1153.661743164062	1112.243530273438	-31.93463516235352	1402.522705078125	1092.173583984375	125.7075347900391	1346.688598632812	1103.968383789062	-78.75462341308594	1264.585205078125	1163.144775390625	-36.42289733886719	1362.670654296875	990.4714965820312	51.52791595458984	1380.126586914062	937.0558471679688	42.52678298950195	1258.00341796875	870.8572998046875	71.82957458496094	1053.942993164062	867.6709594726562	2.4136643409729	1040.319580078125	916.9082641601562	164.2232055664062	813.1799926757812	935.1782836914062	136.0530853271484	800.9680786132812	873.3511962890625	91.39324951171875	949.98046875	866.8375244140625	166.5776977539062	652.5989379882812	944.4263305664062	131.5458679199219	730.2927856445312	881.0228881835938	179.3376770019531	733.7865600585938	922.9180908203125	22.88486671447754	1393.580688476562	1257.43310546875	13.85156059265137	1329.071533203125	1322.974731445312	32.31986236572266	1060.447631835938	1357.15771484375	-15.40617752075195	1052.623657226562	1276.072509765625	138.4551391601562	832.1461181640625	1299.76806640625	111.4439697265625	817.8842163085938	1369.956787109375	59.79133605957031	993.936279296875	1363.446899414062	147.8982086181641	659.1693115234375	1304.0029296875	168.1910095214844	730.50341796875	1310.430419921875	124.179801940918	731.9860229492188	1364.193603515625	-4.904390335083008	1603.408935546875	1169.333374023438	175.1939239501953	1627.490966796875	1066.85400390625	156.4232788085938	1628.439208984375	1166.158813476562	-3.977432727813721	1595.37939453125	1025.039672851562	42.61236953735352	918.9032592773438	955.6286010742188	29.2052059173584	928.0181884765625	1294.946655273438	135.1927642822266	951.44775390625	1253.281005859375	163.9754028320312	943.7058715820312	1015.340270996094	60.52260971069336	460.2337951660156	979.2666015625	70.44544219970703	599.864990234375	967.0903930664062	-28.94374656677246	50.68717193603516	997.5255126953125	15.55893993377686	246.5209045410156	975.5269775390625	173.6181335449219	42.12051773071289	1066.593139648438	101.7713928222656	28.84723472595215	1103.563598632812	97.43442535400391	45.6444091796875	991.5565185546875	-67.73278045654297	44.43190765380859	1062.583129882812	39.05718612670898	460.6627807617188	1270.748046875	91.73550415039062	716.8085327148438	1296.408447265625	-18.75088882446289	50.92118453979492	1240.807250976562	43.73037719726562	343.8013610839844	1259.797973632812	172.9721069335938	44.55380249023438	1183.3740234375	116.3941802978516	39.67259216308594	1142.98095703125	82.2940673828125	36.70626449584961	1257.131591796875	-70.42176055908203	53.29195022583008	1195.5048828125	
